<?xml version="1.0" encoding="UTF-8"?>
<svg width="376px" height="224px" viewBox="0 0 376 224" version="1.1" xmlns="http://www.w3.org/2000/svg" xmlns:xlink="http://www.w3.org/1999/xlink">
    <!-- Generator: Sketch 46 (44423) - http://www.bohemiancoding.com/sketch -->
    <title>Group 7</title>
    <desc>Created with Sketch.</desc>
    <defs>
        <rect id="path-1" x="0" y="0" width="372" height="220" rx="10"></rect>
        <rect id="path-2" x="0" y="0" width="328" height="176" rx="4"></rect>
        <rect id="path-4" x="0" y="0" width="128" height="93" rx="4"></rect>
        <polygon id="path-6" points="17.137 25.066 19 24.063 20.615 23.224 18.047 18.408 22.379 18.408 11 7 11 23.015 14.316 19.794"></polygon>
        <rect id="path-8" x="0" y="0" width="112" height="48" rx="4"></rect>
        <filter x="-13.4%" y="-31.3%" width="126.8%" height="162.5%" filterUnits="objectBoundingBox" id="filter-9">
            <feOffset dx="0" dy="0" in="SourceAlpha" result="shadowOffsetOuter1"></feOffset>
            <feGaussianBlur stdDeviation="5" in="shadowOffsetOuter1" result="shadowBlurOuter1"></feGaussianBlur>
            <feColorMatrix values="0 0 0 0 0   0 0 0 0 0   0 0 0 0 0  0 0 0 0.1 0" type="matrix" in="shadowBlurOuter1"></feColorMatrix>
        </filter>
        <path d="M18,19 L18,18 L16,18 L16,19 L18,19 Z M18,23 L18,27 L16,27 L16,23 L18,23 Z M18,14 L18,13 L16,13 L16,14 L18,14 Z M18,9 L18,5 L16,5 L16,9 L18,9 Z M6,20 L20,20 L20,22 L6,22 L6,20 Z M14,15 L26,15 L26,17 L14,17 L14,15 Z M8,10 L23,10 L23,12 L8,12 L8,10 Z" id="path-10"></path>
        <path d="M16,22 C19.3137085,22 22,19.3137085 22,16 C22,12.6862915 19.3137085,10 16,10 C12.6862915,10 10,12.6862915 10,16 C10,19.3137085 12.6862915,22 16,22 Z M16,24 C11.581722,24 8,20.418278 8,16 C8,11.581722 11.581722,8 16,8 C20.418278,8 24,11.581722 24,16 C24,20.418278 20.418278,24 16,24 Z M15,3 L17,3 L17,6 L15,6 L15,3 Z M21.1655762,4.02336275 L22.9314714,4.96230588 L21.5230567,7.61114866 L19.7571615,6.67220553 L21.1655762,4.02336275 Z M26.1194661,7.78773871 L27.266619,9.4260428 L24.8091628,11.1467721 L23.66201,9.50846802 L26.1194661,7.78773871 Z M28.7831019,13.438478 L29.0268406,15.4235703 L26.0492022,15.7891783 L25.8054635,13.804086 L28.7831019,13.438478 Z M28.5114254,19.6819277 L27.7946895,21.5490886 L24.9939482,20.4739847 L25.7106841,18.6068239 L28.5114254,19.6819277 Z M25.3727513,25.0534602 L23.8864617,26.3917214 L21.8790698,24.162287 L23.3653595,22.8240258 L25.3727513,25.0534602 Z M20.0853087,28.3793526 L18.1447173,28.8631964 L17.4189516,25.9523092 L19.359543,25.4684654 L20.0853087,28.3793526 Z" id="path-12"></path>
    </defs>
    <g id="10--Trava" stroke="none" stroke-width="1" fill="none" fill-rule="evenodd">
        <g id="Options-Trava-OnOarding-PremierePro-1" transform="translate(-312.000000, -52.000000)">
            <g id="Group-7" transform="translate(314.000000, 54.000000)">
                <g id="Screen">
                    <g>
                        <use fill="#222425" fill-rule="evenodd" xlink:href="#path-1"></use>
                        <rect stroke="#FFFFFF" stroke-width="2" x="-1" y="-1" width="374" height="222" rx="10"></rect>
                    </g>
                    <g id="Interface/AppLayout2" transform="translate(22.000000, 22.000000)">
                        <g id="AppLayout">
                            <g id="BG">
                                <mask id="mask-3" fill="white">
                                    <use xlink:href="#path-2"></use>
                                </mask>
                                <g id="Mask">
                                    <use fill="#222425" fill-rule="evenodd" xlink:href="#path-2"></use>
                                    <rect stroke="#FFFFFF" stroke-width="2" x="1" y="1" width="326" height="174" rx="4"></rect>
                                </g>
                            </g>
                        </g>
                    </g>
                    <g id="Group-5" transform="translate(162.000000, 33.000000)">
                        <g id="Interface/AppLayout2">
                            <g id="AppLayout">
                                <g id="BG">
                                    <mask id="mask-5" fill="white">
                                        <use xlink:href="#path-4"></use>
                                    </mask>
                                    <g id="Mask">
                                        <use fill="#222425" fill-rule="evenodd" xlink:href="#path-4"></use>
                                        <rect stroke="#FFFFFF" stroke-width="2" x="1" y="1" width="126" height="91" rx="4"></rect>
                                    </g>
                                </g>
                            </g>
                        </g>
                        <path d="M1,75 L127,75" id="Path-6-Copy-13" stroke="#FFFFFF" stroke-width="2"></path>
                    </g>
                </g>
                <g id="Cursor/Simplified" transform="translate(251.000000, 136.000000)">
                    <g id="Cursor">
                        <mask id="mask-7" fill="white">
                            <use xlink:href="#path-6"></use>
                        </mask>
                        <use fill="#FFFFFF" xlink:href="#path-6"></use>
                        <g id="Colors/White" mask="url(#mask-7)" fill="#FFFFFF">
                            <rect id="Rectangle-3" x="0" y="0" width="32" height="32"></rect>
                        </g>
                    </g>
                </g>
                <path d="M24,137 L350,137" id="Path-6-Copy-10" stroke="#FFFFFF" stroke-width="2"></path>
                <path d="M168,116 L284,116" id="Path-6-Copy-14" stroke="#00EAD0" stroke-width="2"></path>
                <rect id="Rectangle-10" fill="#00EAD0" x="173" y="113" width="4" height="6"></rect>
                <path d="M81,197 L81,23" id="Path-6-Copy-11" stroke="#FFFFFF" stroke-width="2"></path>
                <g id="Group-6" transform="translate(90.000000, 152.000000)" fill="#00EAD0">
                    <rect id="Rectangle-11" x="0" y="0" width="102" height="4"></rect>
                    <rect id="Rectangle-11-Copy" x="85" y="14" width="150" height="4"></rect>
                    <rect id="Rectangle-11-Copy-2" x="45" y="28" width="134" height="4"></rect>
                </g>
                <g id="Group-2" transform="translate(118.000000, 138.000000)">
                    <path d="M3,58 L3,0" id="Path-6-Copy-12" stroke="#00EAD0" stroke-width="2"></path>
                    <rect id="Rectangle-10" fill="#00EAD0" x="0" y="0" width="6" height="9"></rect>
                </g>
                <g id="Overlay" transform="translate(130.000000, 155.000000)">
                    <g id="Group-3">
                        <g id="Group-4">
                            <g id="Background">
                                <use fill="black" fill-opacity="1" filter="url(#filter-9)" xlink:href="#path-8"></use>
                                <use fill="#00EAD0" fill-rule="evenodd" xlink:href="#path-8"></use>
                            </g>
                            <rect id="Background" fill="#000000" opacity="0.100000001" x="56" y="0" width="1" height="48" rx="0.5"></rect>
                        </g>
                        <g id="Icons/Trava/Premiere/TimelineNavigation" transform="translate(14.000000, 8.000000)">
                            <mask id="mask-11" fill="white">
                                <use xlink:href="#path-10"></use>
                            </mask>
                            <use id="Combined-Shape" fill="#000000" fill-rule="evenodd" xlink:href="#path-10"></use>
                            <g id="Colors/Khole" mask="url(#mask-11)" fill-rule="evenodd" fill="#2F3132">
                                <rect id="Rectangle-3" x="0" y="0" width="32" height="32"></rect>
                            </g>
                        </g>
                        <g id="Icons/Trava/Premiere/JogWheel" opacity="0.200000003" transform="translate(67.000000, 8.000000)">
                            <mask id="mask-13" fill="white">
                                <use xlink:href="#path-12"></use>
                            </mask>
                            <use id="Combined-Shape" fill="#979797" fill-rule="nonzero" xlink:href="#path-12"></use>
                            <g id="Colors/Khole" mask="url(#mask-13)" fill-rule="evenodd" fill="#2F3132">
                                <rect id="Rectangle-3" x="0" y="0" width="32" height="32"></rect>
                            </g>
                        </g>
                    </g>
                </g>
            </g>
        </g>
    </g>
</svg>