<?xml version="1.0" encoding="UTF-8"?>
<svg width="24px" height="23px" viewBox="0 0 24 23" version="1.1" xmlns="http://www.w3.org/2000/svg" xmlns:xlink="http://www.w3.org/1999/xlink">
    <!-- Generator: Sketch 43.2 (39069) - http://www.bohemiancoding.com/sketch -->
    <title>brightness</title>
    <desc>Created with Sketch.</desc>
    <defs>
        <path d="M17,8.06189375 L17,5 C17,4.44771525 16.5522847,4 16,4 C15.4477153,4 15,4.44771525 15,5 L15,8.06189375 C15.3275942,8.02104333 15.6613397,8 16,8 C16.3386603,8 16.6724058,8.02104333 17,8.06189375 Z M22.8339484,11.8387929 C22.4844748,11.2660787 22.0650322,10.74073 21.5875008,10.2746272 L23.9611784,8.35246099 C24.3903843,8.00489694 25.0200807,8.0710807 25.3676447,8.50028656 C25.7152088,8.92949243 25.649025,9.55918886 25.2198192,9.90675292 L22.8339484,11.8387929 Z M23.5187292,18.7392603 L26.4981074,19.427104 C27.0362371,19.551341 27.5731915,19.2158147 27.6974285,18.677685 C27.8216655,18.1395552 27.4861392,17.6026009 26.9480095,17.4783638 L23.9615945,16.7888956 C23.8951744,17.4674586 23.7439755,18.1211574 23.5187292,18.7392603 Z M18.5390378,23.5886782 C19.1796514,23.3744347 19.7841501,23.0813444 20.3410123,22.7209292 L21.6807548,25.4678084 C21.9228605,25.9641987 21.7167221,26.5628679 21.2203319,26.8049736 C20.7239416,27.0470793 20.1252724,26.840941 19.8831667,26.3445507 L18.5390378,23.5886782 Z M11.6589877,22.7209292 C12.2158499,23.0813444 12.8203486,23.3744347 13.4609622,23.5886782 L12.1168333,26.3445507 C11.8747276,26.840941 11.2760584,27.0470793 10.7796681,26.8049736 C10.2832779,26.5628679 10.0771395,25.9641987 10.3192452,25.4678084 L11.6589877,22.7209292 Z M8.03840547,16.7888956 L5.05199052,17.4783638 C4.5138608,17.6026009 4.17833448,18.1395552 4.30257151,18.677685 C4.42680855,19.2158147 4.9637629,19.551341 5.50189263,19.427104 L8.48127075,18.7392603 C8.2560245,18.1211574 8.10482556,17.4674586 8.03840547,16.7888956 Z M10.4124992,10.2746272 C9.93496783,10.74073 9.51552519,11.2660787 9.16605156,11.8387929 L6.78018082,9.90675292 C6.35097496,9.55918886 6.2847912,8.92949243 6.63235525,8.50028656 C6.97991931,8.0710807 7.60961574,8.00489694 8.03882161,8.35246099 L10.4124992,10.2746272 Z M16,23 C12.1340068,23 9,19.8659932 9,16 C9,12.1340068 12.1340068,9 16,9 C19.8659932,9 23,12.1340068 23,16 C23,19.8659932 19.8659932,23 16,23 Z M16,21 C18.7614237,21 21,18.7614237 21,16 C21,13.2385763 18.7614237,11 16,11 C13.2385763,11 11,13.2385763 11,16 C11,18.7614237 13.2385763,21 16,21 Z" id="path-1"></path>
    </defs>
    <g id="10--Trava" stroke="none" stroke-width="1" fill="none" fill-rule="evenodd">
        <g id="Options-Trava-OnOarding-Photoshop-1-" transform="translate(-460.000000, -220.000000)">
            <g id="Overlay" transform="translate(444.000000, 208.000000)">
                <g id="Icons/Trava/Photoshop/Brightnessnull" transform="translate(12.000000, 8.000000)">
                    <mask id="mask-2" fill="white">
                        <use xlink:href="#path-1"></use>
                    </mask>
                    <g id="Combined-Shape" fill-rule="nonzero"></g>
                    <g id="Colors/Khole" mask="url(#mask-2)" fill-rule="evenodd" fill="#2F3132">
                        <rect id="Rectangle-3" x="0" y="0" width="32" height="32"></rect>
                    </g>
                </g>
            </g>
        </g>
    </g>
</svg>