<?xml version="1.0" encoding="UTF-8"?>
<svg width="24px" height="24px" viewBox="0 0 24 24" version="1.1" xmlns="http://www.w3.org/2000/svg" xmlns:xlink="http://www.w3.org/1999/xlink">
    <!-- Generator: Sketch 43.2 (39069) - http://www.bohemiancoding.com/sketch -->
    <title>contrast</title>
    <desc>Created with Sketch.</desc>
    <defs>
        <path d="M16,28 C9.372583,28 4,22.627417 4,16 C4,9.372583 9.372583,4 16,4 C22.627417,4 28,9.372583 28,16 C28,22.627417 22.627417,28 16,28 Z M16,26 C21.5228475,26 26,21.5228475 26,16 C26,10.4771525 21.5228475,6 16,6 C10.4771525,6 6,10.4771525 6,16 C6,21.5228475 10.4771525,26 16,26 Z M16,8 L16,24 C11.581722,24 8,20.418278 8,16 C8,11.581722 11.581722,8 16,8 Z" id="path-1"></path>
    </defs>
    <g id="10--Trava" stroke="none" stroke-width="1" fill="none" fill-rule="evenodd">
        <g id="Options-Trava-OnOarding-Photoshop-1-" transform="translate(-516.000000, -220.000000)">
            <g id="Overlay" transform="translate(444.000000, 208.000000)">
                <g id="Icons/Trava/Photoshop/Contrastnull" transform="translate(68.000000, 8.000000)">
                    <mask id="mask-2" fill="white">
                        <use xlink:href="#path-1"></use>
                    </mask>
                    <g id="Combined-Shape" fill-rule="nonzero"></g>
                    <g id="Colors/Khole" mask="url(#mask-2)" fill-rule="evenodd" fill="#2F3132">
                        <rect id="Rectangle-3" x="0" y="0" width="32" height="32"></rect>
                    </g>
                </g>
            </g>
        </g>
    </g>
</svg>