<?xml version="1.0" encoding="UTF-8"?>
<svg width="17px" height="20px" viewBox="0 0 17 20" version="1.1" xmlns="http://www.w3.org/2000/svg" xmlns:xlink="http://www.w3.org/1999/xlink">
    <!-- Generator: Sketch 43.2 (39069) - http://www.bohemiancoding.com/sketch -->
    <title>pen</title>
    <desc>Created with Sketch.</desc>
    <defs></defs>
    <g id="10--Trava" stroke="none" stroke-width="1" fill="none" fill-rule="evenodd">
        <g id="Options-Trava-OnOarding-Photoshop-1-" transform="translate(-355.000000, -133.000000)" fill="#FFFFFF">
            <g id="Group-2" transform="translate(354.000000, 97.000000)">
                <path d="M6.91612449,45.9853414 L16.1898943,37.2990709 C16.1898943,37.2990709 19.0793186,35.4268967 17.3491155,38.4582922 C15.6189124,41.4896876 9.87157031,48.9407872 9.87157031,48.9407872 C9.87157031,48.9407872 10.3937882,47.732062 9.23456693,46.5728407 C8.07534571,45.4136195 6.91612449,45.9853414 6.91612449,45.9853414 Z M1.9011849,55.258597 C1.9011849,55.258597 2.46987662,52.5346651 3.19350437,50.2380604 C3.91713213,47.9414558 7.01896466,47.4195496 7.9853253,48.2595941 C8.95168594,49.0996386 8.3730948,51.3474093 6.69300582,53.2801306 C5.01291684,55.2128519 1.9011849,55.258597 1.9011849,55.258597 Z" id="pen"></path>
            </g>
        </g>
    </g>
</svg>