<?xml version="1.0" encoding="UTF-8"?>
<svg width="163px" height="162px" viewBox="0 0 163 162" version="1.1" xmlns="http://www.w3.org/2000/svg" xmlns:xlink="http://www.w3.org/1999/xlink">
    <!-- Generator: Sketch 46 (44423) - http://www.bohemiancoding.com/sketch -->
    <title>Group 2</title>
    <desc>Created with Sketch.</desc>
    <defs></defs>
    <g id="10--Trava" stroke="none" stroke-width="1" fill="none" fill-rule="evenodd">
        <g id="Options-Trava-OnOarding-Word-4" transform="translate(-419.000000, -90.000000)" stroke="#FFFFFF" stroke-width="2">
            <g id="Group-2" transform="translate(419.000000, 90.000000)">
                <rect id="Rectangle-20" x="1" y="1" width="161" height="160"></rect>
                <rect id="Rectangle-Copy-6" x="17" y="29" width="127" height="1"></rect>
                <rect id="Rectangle-Copy-6" x="17" y="37" width="127" height="1"></rect>
                <rect id="Rectangle-Copy-6" x="17" y="45" width="127" height="1"></rect>
                <rect id="Rectangle-Copy-6" x="17" y="53" width="127" height="1"></rect>
                <rect id="Rectangle-Copy-6" x="17" y="61" width="35" height="1"></rect>
                <g id="Group-4" transform="translate(16.000000, 128.000000)">
                    <rect id="Rectangle-Copy-6" x="1" y="1" width="59" height="1"></rect>
                    <rect id="Rectangle-Copy-6" x="1" y="9" width="59" height="1"></rect>
                    <rect id="Rectangle-Copy-6" x="1" y="17" width="59" height="1"></rect>
                    <rect id="Rectangle-Copy-6" x="1" y="25" width="59" height="1"></rect>
                    <rect id="Rectangle-Copy-6" x="69" y="25" width="59" height="1"></rect>
                    <rect id="Rectangle-Copy-6" x="69" y="17" width="59" height="1"></rect>
                    <rect id="Rectangle-Copy-6" x="69" y="9" width="59" height="1"></rect>
                    <rect id="Rectangle-Copy-6" x="69" y="1" width="59" height="1"></rect>
                </g>
                <rect id="Rectangle-Copy-6" x="17" y="73" width="127" height="44"></rect>
                <path d="M17,74 L143,116" id="Path-10"></path>
                <path d="M17,117 L144,74" id="Path-10-Copy"></path>
            </g>
        </g>
    </g>
</svg>